<svg width="148" height="48" viewBox="0 0 148 48" fill="none" xmlns="http://www.w3.org/2000/svg">
<g id="Component 1">
<path id="Mountain" d="M25.95 10.9091V32H30.2753V18.2209H30.4504L35.9085 31.897H38.8538L44.3119 18.2724H44.4869V32H48.8122V10.9091H43.3129L37.5047 25.0795H37.2575L31.4493 10.9091H25.95ZM57.9558 32.3089C62.7548 32.3089 65.7413 29.0238 65.7413 24.1527C65.7413 19.2507 62.7548 15.9759 57.9558 15.9759C53.1568 15.9759 50.1703 19.2507 50.1703 24.1527C50.1703 29.0238 53.1568 32.3089 57.9558 32.3089ZM57.9764 28.9105C55.7622 28.9105 54.6294 26.8817 54.6294 24.1218C54.6294 21.3619 55.7622 19.3228 57.9764 19.3228C60.1493 19.3228 61.2821 21.3619 61.2821 24.1218C61.2821 26.8817 60.1493 28.9105 57.9764 28.9105ZM77.1427 25.2649C77.153 27.3864 75.701 28.4986 74.1253 28.4986C72.4673 28.4986 71.3963 27.3349 71.386 25.4709V16.1818H66.9989V26.2536C67.0092 29.9506 69.1719 32.206 72.354 32.206C74.7329 32.206 76.4425 30.9805 77.153 29.1268H77.3178V32H81.5298V16.1818H77.1427V25.2649ZM87.831 22.8551C87.8413 20.8161 89.0565 19.6214 90.8278 19.6214C92.5888 19.6214 93.6496 20.7749 93.6393 22.7109V32H98.0263V21.9283C98.0263 18.2415 95.8637 15.9759 92.5682 15.9759C90.2202 15.9759 88.521 17.1293 87.8104 18.9727H87.6251V16.1818H83.444V32H87.831V22.8551ZM108.303 16.1818H105.326V12.392H100.939V16.1818H98.7768V19.4773H100.939V27.7159C100.919 30.8157 103.03 32.3501 106.212 32.2163C107.345 32.1751 108.148 31.9485 108.591 31.8043L107.901 28.5398C107.685 28.581 107.221 28.6839 106.809 28.6839C105.934 28.6839 105.326 28.3544 105.326 27.1392V19.4773H108.303V16.1818ZM114.076 32.2987C116.414 32.2987 117.928 31.2791 118.7 29.8065H118.824V32H122.984V21.331C122.984 17.5618 119.792 15.9759 116.27 15.9759C112.48 15.9759 109.988 17.7884 109.38 20.6719L113.438 21.0014C113.736 19.951 114.673 19.1786 116.249 19.1786C117.742 19.1786 118.597 19.9304 118.597 21.228V21.2898C118.597 22.3093 117.516 22.4432 114.766 22.7109C111.635 22.9993 108.824 24.0497 108.824 27.582C108.824 30.7127 111.059 32.2987 114.076 32.2987ZM115.333 29.271C113.983 29.271 113.015 28.6428 113.015 27.4379C113.015 26.2021 114.035 25.5945 115.58 25.3782C116.537 25.2443 118.103 25.0178 118.628 24.6676V26.3462C118.628 28.0043 117.258 29.271 115.333 29.271ZM124.793 32H129.18V16.1818H124.793V32ZM126.997 14.1428C128.304 14.1428 129.375 13.1438 129.375 11.9183C129.375 10.7031 128.304 9.70419 126.997 9.70419C125.699 9.70419 124.628 10.7031 124.628 11.9183C124.628 13.1438 125.699 14.1428 126.997 14.1428ZM135.486 22.8551C135.496 20.8161 136.712 19.6214 138.483 19.6214C140.244 19.6214 141.305 20.7749 141.294 22.7109V32H145.681V21.9283C145.681 18.2415 143.519 15.9759 140.223 15.9759C137.875 15.9759 136.176 17.1293 135.466 18.9727H135.28V16.1818H131.099V32H135.486V22.8551Z" fill="#3A3D46"/>
<g id="Group 13">
<g id="Group 12">
<g id="Polygon 1" filter="url(#filter0_d)">
<path d="M24.917 1.75766C25.2874 1.02762 26.3302 1.02761 26.7006 1.75766L41.6919 31.3049C42.0294 31.9701 41.5461 32.7574 40.8001 32.7574H10.8175C10.0715 32.7574 9.58819 31.9701 9.92571 31.3049L24.917 1.75766Z" fill="#3A3D46"/>
</g>
<g id="Polygon 2" filter="url(#filter1_d)">
<path d="M18.2994 5.75766C18.6698 5.02762 19.7126 5.02761 20.083 5.75766L35.0743 35.3049C35.4118 35.9701 34.9285 36.7574 34.1825 36.7574H4.19985C3.4539 36.7574 2.97055 35.9701 3.30806 35.3049L18.2994 5.75766Z" fill="#FBD149"/>
</g>
<g id="Polygon 3" filter="url(#filter2_d)">
<path d="M27.3811 17.6873C28.5259 15.6384 31.4741 15.6384 32.6189 17.6873L40.4966 31.7867C41.6139 33.7864 40.1684 36.25 37.8777 36.25H22.1223C19.8316 36.25 18.3861 33.7864 19.5034 31.7867L27.3811 17.6873Z" fill="#E57A68"/>
</g>
<path id="Vector" d="M45 34.093L43.5882 32.7718C42.1765 31.4507 39.3529 28.8084 36.5294 26.6037C33.7059 24.4321 30.8824 22.6155 28.0588 23.9614C25.2353 25.2578 22.4118 29.7167 19.5882 31.0131C16.7647 32.359 13.9412 30.5424 11.1176 31.0131C8.29412 31.4507 5.47059 34.093 4.05882 35.4141L2.64705 36.7353H4.05882C5.47059 36.7353 8.29412 36.7353 11.1176 36.7353C13.9412 36.7353 16.7647 36.7353 19.5882 36.7353C22.4118 36.7353 25.2353 36.7353 28.0588 36.7353C30.8824 36.7353 33.7059 36.7353 36.5294 36.7353C39.3529 36.7353 42.1765 36.7353 43.5882 36.7353H45V34.093Z" fill="#5C5E56"/>
</g>
</g>
</g>
<defs>
<filter id="filter0_d" x="9.81618" y="1.21014" width="33.9853" height="33.5472" filterUnits="userSpaceOnUse" color-interpolation-filters="sRGB">
<feFlood flood-opacity="0" result="BackgroundImageFix"/>
<feColorMatrix in="SourceAlpha" type="matrix" values="0 0 0 0 0 0 0 0 0 0 0 0 0 0 0 0 0 0 127 0"/>
<feOffset dx="1" dy="1"/>
<feGaussianBlur stdDeviation="0.5"/>
<feColorMatrix type="matrix" values="0 0 0 0 0 0 0 0 0 0 0 0 0 0 0 0 0 0 0.25 0"/>
<feBlend mode="normal" in2="BackgroundImageFix" result="effect1_dropShadow"/>
<feBlend mode="normal" in="SourceGraphic" in2="effect1_dropShadow" result="shape"/>
</filter>
<filter id="filter1_d" x="0.198538" y="1.21014" width="39.9853" height="39.5472" filterUnits="userSpaceOnUse" color-interpolation-filters="sRGB">
<feFlood flood-opacity="0" result="BackgroundImageFix"/>
<feColorMatrix in="SourceAlpha" type="matrix" values="0 0 0 0 0 0 0 0 0 0 0 0 0 0 0 0 0 0 127 0"/>
<feOffset dx="1"/>
<feGaussianBlur stdDeviation="2"/>
<feColorMatrix type="matrix" values="0 0 0 0 0 0 0 0 0 0 0 0 0 0 0 0 0 0 0.25 0"/>
<feBlend mode="normal" in2="BackgroundImageFix" result="effect1_dropShadow"/>
<feBlend mode="normal" in="SourceGraphic" in2="effect1_dropShadow" result="shape"/>
</filter>
<filter id="filter2_d" x="14.118" y="11.1506" width="29.7641" height="28.0994" filterUnits="userSpaceOnUse" color-interpolation-filters="sRGB">
<feFlood flood-opacity="0" result="BackgroundImageFix"/>
<feColorMatrix in="SourceAlpha" type="matrix" values="0 0 0 0 0 0 0 0 0 0 0 0 0 0 0 0 0 0 127 0"/>
<feOffset dx="-1" dy="-1"/>
<feGaussianBlur stdDeviation="2"/>
<feColorMatrix type="matrix" values="0 0 0 0 0 0 0 0 0 0 0 0 0 0 0 0 0 0 0.25 0"/>
<feBlend mode="normal" in2="BackgroundImageFix" result="effect1_dropShadow"/>
<feBlend mode="normal" in="SourceGraphic" in2="effect1_dropShadow" result="shape"/>
</filter>
</defs>
</svg>
